<?xml version="1.0" encoding="UTF-8"?>
<svg id="Layer_2" data-name="Layer 2" xmlns="http://www.w3.org/2000/svg" viewBox="0 0 649.79 173.6">
  <defs>
    <style>
      .cls-1 {
        fill: #5e4cdc;
      }

      .cls-2 {
        fill: #07002c;
      }
    </style>
  </defs>
  <g id="Layer_1-2" data-name="Layer 1">
    <g>
      <g>
        <path class="cls-2" d="M212.73,116.24c-16.11,0-29.23-13.11-29.23-29.23s13.11-29.06,29.23-29.06c14.83,0,31.03,12.43,28.8,33.17h-44.74c1.63,8.14,8.23,13.97,15.94,13.97,6.26,0,11.83-3.86,14.48-9.86h13.37c-3.51,12.08-14.66,21-27.86,21ZM227.9,80.76c-2.23-7.03-8.23-11.66-15.17-11.66s-13.11,4.71-15.43,11.74l30.6-.09Z"/>
        <path class="cls-2" d="M291.93,114.61v-5.49c-2.49,3.09-9.77,7.11-17.57,7.11-14.4,0-27.51-13.11-27.51-29.23s13.11-29.06,29.23-29.06,28.28,13.03,28.28,29.06v27.6h-12.43ZM276.07,105.1c8.91,0,16.37-7.8,16.37-18.08s-7.46-17.91-16.37-17.91-16.37,7.71-16.37,17.91,7.46,18.08,16.37,18.08Z"/>
        <path class="cls-2" d="M333.16,105.19c5.4,0,8.66-2.66,8.66-6.17,0-12.26-29.74-3.43-29.74-25.11,0-9.34,8.66-16.37,20.23-16.37s20.66,7.97,20.66,17.49h-12.86c0-3.17-3.34-6.34-7.8-6.34s-7.8,2.23-7.8,5.23c0,10.71,30.17,4.11,30.17,23.74,0,10.71-9.6,18.68-22.37,18.68s-21.94-9.09-21.94-21.17h12.43c0,5.74,3.26,10.03,10.37,10.03Z"/>
        <path class="cls-2" d="M369.93,58.9l15.86,40.2,16.03-40.2h12.43l-28.97,72.85h-12.43l6.86-17.14h-.17l-22.28-55.71h12.68Z"/>
        <path class="cls-2" d="M432.67,46.05v12.86h10.2v11.14h-10.2v44.57h-12.43V46.05h12.43Z"/>
        <path class="cls-2" d="M475.53,116.24c-16.11,0-29.23-13.11-29.23-29.23s13.11-29.06,29.23-29.06c14.83,0,31.03,12.43,28.8,33.17h-44.74c1.63,8.14,8.23,13.97,15.94,13.97,6.26,0,11.83-3.86,14.48-9.86h13.37c-3.51,12.08-14.66,21-27.86,21ZM490.7,80.76c-2.23-7.03-8.23-11.66-15.17-11.66s-13.11,4.71-15.43,11.74l30.6-.09Z"/>
        <path class="cls-2" d="M538.87,116.24c-16.11,0-29.23-13.11-29.23-29.23s13.11-29.06,29.23-29.06c14.83,0,27.08,11.14,28.8,25.46h-12.94c-1.46-8.49-8.06-14.31-15.86-14.31-8.91,0-16.37,7.71-16.37,17.91s7.46,18.08,16.37,18.08c7.37,0,13.8-5.4,15.68-13.28h12.94c-2.23,13.8-14.23,24.43-28.63,24.43Z"/>
        <path class="cls-2" d="M575.39,46.05h12.43v19.8c1.71-3.86,6.6-8.14,16.03-8.14,11.83,0,21.94,9.77,21.94,24.34v32.57h-12.43v-32.57c0-7.97-5.14-13.28-12.77-13.28s-12.77,5.31-12.77,13.28v32.57h-12.43V46.05Z"/>
        <path class="cls-1" d="M632.65,106.73c0-4.89,3.69-8.57,8.57-8.57s8.57,3.69,8.57,8.57-3.69,8.57-8.57,8.57-8.57-3.69-8.57-8.57Z"/>
      </g>
      <g>
        <path class="cls-2" d="M404.94,145.29c-1.04-.73-1.63-1.76-1.76-3.11h1.25c.09.96.53,1.73,1.32,2.29.79.56,1.87.85,3.23.85,1.13,0,2.02-.29,2.68-.86.66-.57,1-1.28,1-2.11,0-.58-.18-1.06-.53-1.43s-.79-.66-1.32-.86-1.25-.42-2.15-.65c-1.09-.29-1.97-.58-2.64-.86-.67-.28-1.25-.7-1.72-1.27-.47-.56-.71-1.32-.71-2.26,0-.69.21-1.33.63-1.92s1-1.06,1.75-1.4c.75-.34,1.59-.52,2.54-.52,1.54,0,2.79.39,3.75,1.16.95.77,1.47,1.84,1.54,3.2h-1.23c-.05-.98-.44-1.78-1.15-2.4-.71-.62-1.69-.93-2.94-.93-1.05,0-1.93.27-2.62.82s-1.04,1.21-1.04,1.99c0,.69.2,1.25.59,1.68.39.43.87.75,1.44.98.57.23,1.33.47,2.28.72,1.04.27,1.87.54,2.49.8.63.26,1.16.65,1.59,1.15.44.5.65,1.17.65,2,0,.76-.21,1.45-.63,2.07-.42.62-1,1.1-1.74,1.44s-1.58.52-2.51.52c-1.65,0-3-.36-4.05-1.09Z"/>
        <path class="cls-2" d="M436.73,145.45c-1.11-.62-1.98-1.5-2.6-2.66s-.94-2.5-.94-4.05.32-2.87.95-4.02c.64-1.15,1.51-2.04,2.63-2.64,1.12-.61,2.37-.91,3.75-.91s2.63.3,3.73.91c1.11.61,1.98,1.49,2.6,2.63.63,1.14.94,2.49.94,4.03s-.32,2.89-.95,4.05c-.64,1.15-1.51,2.04-2.63,2.66-1.12.62-2.37.93-3.75.93s-2.63-.31-3.73-.93ZM443.48,144.57c.94-.48,1.69-1.21,2.25-2.19s.84-2.19.84-3.62-.28-2.62-.84-3.6-1.31-1.71-2.24-2.19c-.93-.48-1.93-.72-3-.72s-2.07.24-2.99.72c-.92.48-1.66,1.21-2.22,2.19-.56.98-.85,2.18-.85,3.6s.28,2.64.83,3.62c.55.98,1.29,1.71,2.21,2.19.92.48,1.91.72,2.98.72s2.08-.24,3.01-.72Z"/>
        <path class="cls-2" d="M469.12,125.99v20.17h-1.23v-20.17h1.23Z"/>
        <path class="cls-2" d="M502.48,131.36v14.8h-1.23v-3.22c-.42,1.13-1.11,1.99-2.09,2.58-.97.59-2.08.89-3.34.89-1.76,0-3.2-.54-4.32-1.62-1.12-1.08-1.68-2.68-1.68-4.81v-8.61h1.2v8.53c0,1.76.45,3.11,1.34,4.05.89.94,2.1,1.4,3.63,1.4s2.88-.51,3.83-1.53c.95-1.02,1.43-2.53,1.43-4.52v-7.93h1.23Z"/>
        <path class="cls-2" d="M525.13,132.43v9.79c0,1.09.2,1.84.6,2.25.4.41,1.11.61,2.13.61h1.66v1.09h-1.85c-1.29,0-2.24-.3-2.85-.91-.61-.61-.91-1.62-.91-3.04v-9.79h-2.24v-1.06h2.24v-3.76h1.23v3.76h4.39v1.06h-4.39Z"/>
        <path class="cls-2" d="M549.01,127.78c-.2-.19-.3-.45-.3-.78,0-.31.1-.56.3-.76s.45-.3.74-.3.54.1.74.3c.2.2.3.45.3.76,0,.33-.1.59-.3.78-.2.19-.45.29-.74.29s-.54-.1-.74-.29ZM550.35,131.36v14.8h-1.23v-14.8h1.23Z"/>
        <path class="cls-2" d="M573.98,145.45c-1.11-.62-1.98-1.5-2.6-2.66s-.94-2.5-.94-4.05.32-2.87.95-4.02c.64-1.15,1.51-2.04,2.63-2.64,1.12-.61,2.37-.91,3.75-.91s2.63.3,3.73.91c1.11.61,1.98,1.49,2.6,2.63.63,1.14.94,2.49.94,4.03s-.32,2.89-.95,4.05c-.64,1.15-1.51,2.04-2.63,2.66-1.12.62-2.37.93-3.75.93s-2.63-.31-3.73-.93ZM580.73,144.57c.94-.48,1.69-1.21,2.25-2.19s.84-2.19.84-3.62-.28-2.62-.84-3.6-1.31-1.71-2.24-2.19c-.93-.48-1.93-.72-3-.72s-2.07.24-2.99.72c-.92.48-1.66,1.21-2.22,2.19-.56.98-.85,2.18-.85,3.6s.28,2.64.83,3.62c.55.98,1.29,1.71,2.21,2.19.92.48,1.91.72,2.98.72s2.08-.24,3.01-.72Z"/>
        <path class="cls-2" d="M616.12,132.68c1.11,1.08,1.66,2.69,1.66,4.81v8.67h-1.2v-8.59c0-1.76-.45-3.11-1.33-4.05-.89-.94-2.1-1.4-3.63-1.4s-2.88.51-3.83,1.53-1.43,2.53-1.43,4.53v7.99h-1.23v-14.8h1.23v3.13c.42-1.11,1.11-1.96,2.08-2.55.97-.59,2.09-.89,3.37-.89,1.76,0,3.2.54,4.31,1.62Z"/>
        <path class="cls-2" d="M639.36,145.29c-1.04-.73-1.63-1.76-1.76-3.11h1.25c.09.96.53,1.73,1.32,2.29.79.56,1.87.85,3.23.85,1.13,0,2.02-.29,2.68-.86.66-.57,1-1.28,1-2.11,0-.58-.18-1.06-.53-1.43s-.79-.66-1.32-.86-1.25-.42-2.15-.65c-1.09-.29-1.97-.58-2.64-.86-.67-.28-1.25-.7-1.72-1.27-.47-.56-.71-1.32-.71-2.26,0-.69.21-1.33.63-1.92s1-1.06,1.75-1.4c.75-.34,1.59-.52,2.54-.52,1.54,0,2.79.39,3.75,1.16.95.77,1.47,1.84,1.54,3.2h-1.23c-.05-.98-.44-1.78-1.15-2.4-.71-.62-1.69-.93-2.94-.93-1.05,0-1.93.27-2.62.82s-1.04,1.21-1.04,1.99c0,.69.2,1.25.59,1.68.39.43.87.75,1.44.98.57.23,1.33.47,2.28.72,1.04.27,1.87.54,2.49.8.63.26,1.16.65,1.59,1.15.44.5.65,1.17.65,2,0,.76-.21,1.45-.63,2.07-.42.62-1,1.1-1.74,1.44s-1.58.52-2.51.52c-1.65,0-3-.36-4.05-1.09Z"/>
      </g>
      <g>
        <path class="cls-1" d="M94.99,37.15C66.38,74.28,23.38,130.05,0,160.2V60.79l23.64-23.64h71.35Z"/>
        <polygon class="cls-1" points="132.74 76.25 132.74 152.33 111.46 173.6 17.87 173.6 132.74 76.25"/>
        <path class="cls-1" d="M166.51,0v47.62l-33.77,28.63v-39.09h-37.75C111.78,15.36,123.61,0,123.61,0h42.89Z"/>
      </g>
    </g>
  </g>
</svg>